<mxfile host="app.diagrams.net" modified="2023-09-08T13:38:47.349Z" agent="Mozilla/5.0 (X11; Linux x86_64; rv:109.0) Gecko/20100101 Firefox/116.0" etag="YbhGEzSHNQqPAosFAKkl" version="21.7.2" type="device">
  <diagram name="Page-1" id="Vs-sZ3k6pBOKzFg-ea2b">
    <mxGraphModel dx="32" dy="1246" grid="1" gridSize="10" guides="1" tooltips="1" connect="1" arrows="1" fold="1" page="1" pageScale="1" pageWidth="850" pageHeight="1100" math="0" shadow="0">
      <root>
        <mxCell id="0" />
        <mxCell id="1" parent="0" />
        <mxCell id="lsYSEJzYXj3iPV_EKznm-35" value="" style="rounded=0;whiteSpace=wrap;html=1;fillColor=#005293;strokeColor=none;strokeWidth=10;fontFamily=Noto Sans;fontStyle=1" vertex="1" parent="1">
          <mxGeometry x="1590" y="190" width="160" height="100" as="geometry" />
        </mxCell>
        <mxCell id="lsYSEJzYXj3iPV_EKznm-36" value="" style="edgeStyle=orthogonalEdgeStyle;rounded=0;orthogonalLoop=1;jettySize=auto;html=1;fontFamily=Noto Sans;fontStyle=1" edge="1" parent="1" source="lsYSEJzYXj3iPV_EKznm-37" target="lsYSEJzYXj3iPV_EKznm-39">
          <mxGeometry relative="1" as="geometry" />
        </mxCell>
        <mxCell id="lsYSEJzYXj3iPV_EKznm-37" value="&lt;font style=&quot;font-size: 24px;&quot;&gt;Preprocess&lt;/font&gt;" style="rounded=1;whiteSpace=wrap;html=1;fontFamily=Noto Sans;fontStyle=1" vertex="1" parent="1">
          <mxGeometry x="1300" y="205" width="130" height="70" as="geometry" />
        </mxCell>
        <mxCell id="lsYSEJzYXj3iPV_EKznm-38" value="" style="edgeStyle=orthogonalEdgeStyle;rounded=0;orthogonalLoop=1;jettySize=auto;html=1;fontFamily=Noto Sans;fontStyle=1" edge="1" parent="1" source="lsYSEJzYXj3iPV_EKznm-39" target="lsYSEJzYXj3iPV_EKznm-41">
          <mxGeometry relative="1" as="geometry" />
        </mxCell>
        <mxCell id="lsYSEJzYXj3iPV_EKznm-39" value="&lt;font style=&quot;font-size: 24px;&quot;&gt;Any&lt;/font&gt;" style="ellipse;whiteSpace=wrap;html=1;aspect=fixed;fontFamily=Noto Sans;fontStyle=1" vertex="1" parent="1">
          <mxGeometry x="1470" y="205" width="70" height="70" as="geometry" />
        </mxCell>
        <mxCell id="lsYSEJzYXj3iPV_EKznm-40" value="" style="edgeStyle=orthogonalEdgeStyle;rounded=0;orthogonalLoop=1;jettySize=auto;html=1;fontFamily=Noto Sans;fontStyle=1" edge="1" parent="1" source="lsYSEJzYXj3iPV_EKznm-41" target="lsYSEJzYXj3iPV_EKznm-43">
          <mxGeometry relative="1" as="geometry" />
        </mxCell>
        <mxCell id="lsYSEJzYXj3iPV_EKznm-41" value="&lt;font style=&quot;font-size: 24px;&quot;&gt;Solve&lt;/font&gt;" style="rounded=1;whiteSpace=wrap;html=1;fontFamily=Noto Sans;fillColor=none;fontColor=#ffffff;fontStyle=1;strokeColor=#ffffff;" vertex="1" parent="1">
          <mxGeometry x="1610" y="210" width="120" height="60" as="geometry" />
        </mxCell>
        <mxCell id="lsYSEJzYXj3iPV_EKznm-42" value="&lt;div style=&quot;font-size: 24px;&quot;&gt;Yes&lt;/div&gt;" style="edgeStyle=orthogonalEdgeStyle;rounded=0;orthogonalLoop=1;jettySize=auto;html=1;fontFamily=Noto Sans;fontStyle=1" edge="1" parent="1" source="lsYSEJzYXj3iPV_EKznm-43" target="lsYSEJzYXj3iPV_EKznm-44">
          <mxGeometry relative="1" as="geometry" />
        </mxCell>
        <mxCell id="lsYSEJzYXj3iPV_EKznm-43" value="&lt;font style=&quot;font-size: 24px;&quot;&gt;Terminate?&lt;/font&gt;" style="rhombus;whiteSpace=wrap;html=1;rounded=1;fontFamily=Noto Sans;fontStyle=1" vertex="1" parent="1">
          <mxGeometry x="1770" y="200" width="170" height="80" as="geometry" />
        </mxCell>
        <mxCell id="lsYSEJzYXj3iPV_EKznm-44" value="&lt;font style=&quot;font-size: 24px;&quot;&gt;Postprocess&lt;/font&gt;" style="whiteSpace=wrap;html=1;rounded=1;fontFamily=Noto Sans;fontStyle=1" vertex="1" parent="1">
          <mxGeometry x="2020" y="210" width="150" height="60" as="geometry" />
        </mxCell>
        <mxCell id="lsYSEJzYXj3iPV_EKznm-45" value="&lt;font style=&quot;font-size: 24px;&quot;&gt;No&lt;/font&gt;" style="endArrow=classic;html=1;rounded=0;exitX=0.5;exitY=1;exitDx=0;exitDy=0;entryX=0.5;entryY=1;entryDx=0;entryDy=0;fontFamily=Noto Sans;fontStyle=1" edge="1" parent="1" source="lsYSEJzYXj3iPV_EKznm-43" target="lsYSEJzYXj3iPV_EKznm-39">
          <mxGeometry width="50" height="50" relative="1" as="geometry">
            <mxPoint x="1640" y="360" as="sourcePoint" />
            <mxPoint x="1510" y="360" as="targetPoint" />
            <Array as="points">
              <mxPoint x="1855" y="360" />
              <mxPoint x="1505" y="360" />
            </Array>
          </mxGeometry>
        </mxCell>
      </root>
    </mxGraphModel>
  </diagram>
</mxfile>
